<svg width="24" height="24" viewBox="0 0 24 24" fill="none" xmlns="http://www.w3.org/2000/svg" role="img" aria-label="Telegram icon">
  <title>Telegram</title>
  <desc>Minimal Telegram logo: white paper plane on a blue circle</desc>
  <circle cx="12" cy="12" r="12" fill="#3E75C3"/>
  <path d="M17.93 7.02c.27-.12.56.12.47.41l-2.02 8.02c-.09.36-.49.53-.82.36l-3.6-1.8-1.74 1.7c-.2.2-.53.1-.61-.18l-.86-3.06-2.9-1.2c-.31-.13-.3-.58.02-.7l12.06-3.55ZM10.2 12.9l.44 1.57 1.02-.99 2.52 1.26 1.42-5.64-7.16 2.11 1.74.72 4.02-2.02-4 3.0Z" fill="#FFFFFF"/>
</svg>

